# xmcd CD database file
#
# Track frame offsets:
#	182
#	18850
#	36110
#	48152
#	64757
#	82812
#	97300
#	111667
#	127962
#	142832
#
# Disc length: 2121 seconds
#
# Revision: 2
# Processed by: cddbd v1.4PL0 Copyright (c) Steve Scherf et al.
# Submitted via: CDex 1.50Beta7
#
DISCID=7e08470a
DTITLE=Trisha Yearwood - Trisha Yearwood
DYEAR=1991
DGENRE=Country
TTITLE0=She's in Love with the Boy
TTITLE1=The Woman before me
TTITLE2=That's what I like about you
TTITLE3=Like we never had a broken heart
TTITLE4=Fools like me
TTITLE5=Victim of the Game
TTITLE6=When Goodbye was a Word
TTITLE7=The Wisper of your Heart
TTITLE8=You done me wrong
TTITLE9=Lonesome Dove
EXTD=YEAR: 1991
EXTT0=
EXTT1=
EXTT2=
EXTT3=
EXTT4=
EXTT5=
EXTT6=
EXTT7=
EXTT8=
EXTT9=
PLAYORDER=
